<?xml version="1.0" standalone="no"?>
<!DOCTYPE svg PUBLIC "-//W3C//DTD SVG 20010904//EN"
 "http://www.w3.org/TR/2001/REC-SVG-20010904/DTD/svg10.dtd">
<svg version="1.0" xmlns="http://www.w3.org/2000/svg"
 width="512.000000pt" height="512.000000pt" viewBox="0 0 512.000000 512.000000"
 preserveAspectRatio="xMidYMid meet">
<metadata>
Created by potrace 1.11, written by Peter Selinger 2001-2013
</metadata>
<g transform="translate(0.000000,512.000000) scale(0.100000,-0.100000)"
fill="#000000" stroke="none">
<path d="M1130 2559 l0 -2551 838 6 c823 5 917 7 977 19 17 4 42 9 57 11 15 3
67 17 115 31 337 103 572 303 713 608 36 79 47 106 48 117 0 3 7 23 16 45 19
49 62 231 72 300 3 28 9 59 12 70 10 32 11 2544 2 2615 -20 154 -30 211 -54
310 -40 170 -120 358 -205 479 -64 92 -184 207 -281 272 -95 62 -147 88 -265
131 -87 33 -82 31 -140 43 -22 4 -47 11 -55 15 -33 17 -227 22 -1022 26 l-828
4 0 -2551z m1530 1767 c14 -3 39 -9 55 -12 58 -12 146 -65 198 -118 81 -84
141 -207 201 -416 21 -75 21 -78 20 -1205 0 -621 -4 -1159 -8 -1195 -12 -104
-34 -179 -81 -275 -82 -169 -194 -254 -356 -271 -30 -4 -199 -7 -376 -8 l-323
-1 0 30 c-1 38 -1 3468 0 3476 0 7 636 2 670 -5z"/>
</g>
</svg>
